# Blender v2.79 (sub 0) OBJ File: 'asa.blend'
# www.blender.org
mtllib asa.mtl
o Cube
v 0.779999 1.600000 0.022000
v 0.860000 1.200000 0.064000
v 0.540000 0.800000 0.076000
v 0.620000 0.400000 0.088000
v 0.780000 1.600000 -0.022000
v 0.860000 1.200000 -0.064000
v 0.540000 0.800000 -0.076000
v 0.620000 0.400000 -0.088000
v -0.000000 2.000000 -0.000000
v 0.299999 2.000000 0.005001
v 0.300001 2.000000 -0.004999
v 0.000000 0.000000 -0.100000
v -0.000000 0.000000 0.100000
v 0.300000 0.000000 0.100000
v 0.300000 0.000000 -0.100000
v 0.860000 1.200000 -0.064000
v 0.780000 1.600000 -0.022000
v 0.540000 0.800000 -0.076000
v 0.620000 0.400000 -0.088000
v 0.300000 0.000000 -0.100000
v 0.300001 2.000000 -0.004999
v -0.000000 2.000000 -0.000000
v 0.000000 0.000000 -0.100000
vt 0.000000 0.000000
vt 0.000000 0.000000
vt 0.000000 0.000000
vt 0.000000 0.000000
vt 0.000000 0.000000
vt 0.000000 0.000000
vt 0.000000 0.000000
vt 0.000000 0.000000
vt 0.000000 0.000000
vt 0.000000 0.000000
vt 0.000000 0.000000
vt 0.000000 0.000000
vt 0.000000 0.000000
vt 0.000000 0.000000
vt 0.000000 0.000000
vt 0.000000 0.000000
vt 0.000000 0.000000
vt 0.000067 0.043217
vt 0.000027 0.025746
vt 0.999973 0.000027
vt 0.999973 0.070442
vt 0.273330 0.999946
vt 0.023479 0.999945
vt 0.000054 0.000055
vt 0.296752 0.000054
vt 0.402051 0.999934
vt 0.029479 0.999934
vt 0.000066 0.000066
vt 0.431464 0.000066
vt 0.000056 0.000056
vt 0.313807 0.000056
vt 0.210857 0.999943
vt 0.103004 0.999944
vt 0.099776 0.000032
vt 0.099776 0.999968
vt 0.000032 0.005019
vt 0.149846 0.000066
vt 0.309655 0.199830
vt 0.270034 0.399693
vt 0.429769 0.599516
vt 0.389733 0.800303
vt 0.149869 0.999935
vt 0.000067 0.999855
vt 0.000066 0.000066
vt 0.000062 0.000062
vt 0.390448 0.000062
vt 0.367025 0.999938
vt 0.023486 0.999937
vt 0.999918 0.000082
vt 0.999918 0.666639
vt 0.000082 0.666640
vt 0.000082 0.000082
vt 0.279754 0.999934
vt 0.039995 0.800175
vt 0.000066 0.599366
vt 0.159907 0.399627
vt 0.120393 0.199745
vt 0.280308 0.000066
vt 0.430089 0.000145
vt 0.429556 0.999934
vn 0.0000 0.0000 1.0000
vn 0.0000 1.0000 0.0000
vn 0.6402 0.7682 0.0000
vn 0.7809 -0.6247 0.0000
vn 0.9806 0.1961 0.0000
vn -1.0000 -0.0000 -0.0000
vn -0.0169 0.0525 0.9985
vn 0.0000 -1.0000 0.0000
vn -0.0169 0.0525 -0.9985
usemtl Material
s off
f 9/1/1 11/2/1 21/3/1 22/4/1
f 11/2/2 9/1/2 10/5/2
f 7/6/1 8/7/1 19/8/1 18/9/1
f 15/10/1 12/11/1 23/12/1 20/13/1
f 5/14/1 6/15/1 16/16/1 17/17/1
f 8/7/1 15/10/1 20/13/1 19/8/1
f 6/15/1 7/6/1 18/9/1 16/16/1
f 11/2/1 5/14/1 17/17/1 21/3/1
f 12/11/1 9/1/1 22/4/1 23/12/1
usemtl Material.001
f 11/18/3 10/19/3 1/20/3 5/21/3
f 6/22/4 2/23/4 3/24/4 7/25/4
f 7/26/5 3/27/5 4/28/5 8/29/5
f 2/30/5 6/31/5 5/32/5 1/33/5
f 13/34/6 9/35/6 12/36/6
f 14/37/7 4/38/7 3/39/7 2/40/7 1/41/7 10/42/7 9/43/7 13/44/7
f 14/45/4 15/46/4 8/47/4 4/48/4
f 15/49/8 14/50/8 13/51/8 12/52/8
f 21/53/9 17/54/9 16/55/9 18/56/9 19/57/9 20/58/9 23/59/9 22/60/9
