# Blender v2.79 (sub 0) OBJ File: 'canhao.blend'
# www.blender.org
mtllib canhao.mtl
o Torus
v 1.250000 0.000000 0.000000
v 1.125000 1.732051 0.000000
v 0.875000 1.732051 0.000000
v 0.750000 0.000000 0.000000
v -0.000000 -1.732051 0.000000
v 1.125000 -1.732051 0.000000
v 1.188821 0.000000 -0.386271
v 1.069939 1.732051 -0.347644
v 0.832174 1.732051 -0.270390
v 0.713292 0.000000 -0.231763
v 1.069939 -1.732051 -0.347644
v 1.011271 0.000000 -0.734732
v 0.910144 1.732051 -0.661258
v 0.707890 1.732051 -0.514312
v 0.606763 0.000000 -0.440839
v 0.910144 -1.732051 -0.661258
v 0.734731 0.000000 -1.011271
v 0.661258 1.732051 -0.910144
v 0.514312 1.732051 -0.707890
v 0.440839 0.000000 -0.606763
v 0.661258 -1.732051 -0.910144
v 0.386271 0.000000 -1.188821
v 0.347644 1.732051 -1.069939
v 0.270390 1.732051 -0.832174
v 0.231763 0.000000 -0.713292
v 0.347644 -1.732051 -1.069939
v 0.000000 0.000000 -1.250000
v 0.000000 1.732051 -1.125000
v 0.000000 1.732051 -0.875000
v 0.000000 0.000000 -0.750000
v 0.000000 -1.732051 -1.125000
v -0.386271 0.000000 -1.188821
v -0.347644 1.732051 -1.069939
v -0.270390 1.732051 -0.832174
v -0.231763 0.000000 -0.713292
v -0.347644 -1.732051 -1.069939
v -0.734732 0.000000 -1.011271
v -0.661259 1.732051 -0.910144
v -0.514312 1.732051 -0.707890
v -0.440839 0.000000 -0.606763
v -0.661259 -1.732051 -0.910144
v -1.011271 0.000000 -0.734731
v -0.910144 1.732051 -0.661258
v -0.707890 1.732051 -0.514312
v -0.606763 0.000000 -0.440839
v -0.910144 -1.732051 -0.661258
v -1.188821 0.000000 -0.386271
v -1.069939 1.732051 -0.347644
v -0.832174 1.732051 -0.270390
v -0.713292 0.000000 -0.231763
v -1.069939 -1.732051 -0.347644
v -1.250000 0.000000 -0.000000
v -1.125000 1.732051 -0.000000
v -0.875000 1.732051 -0.000000
v -0.750000 0.000000 -0.000000
v -1.125000 -1.732051 -0.000000
v -1.188821 0.000000 0.386271
v -1.069939 1.732051 0.347644
v -0.832175 1.732051 0.270389
v -0.713292 0.000000 0.231762
v -1.069939 -1.732051 0.347644
v -1.011271 0.000000 0.734731
v -0.910144 1.732051 0.661258
v -0.707890 1.732051 0.514312
v -0.606763 0.000000 0.440839
v -0.910144 -1.732051 0.661258
v -0.734732 0.000000 1.011271
v -0.661259 1.732051 0.910144
v -0.514312 1.732051 0.707890
v -0.440839 0.000000 0.606763
v -0.661259 -1.732051 0.910144
v -0.386271 0.000000 1.188821
v -0.347644 1.732051 1.069939
v -0.270390 1.732051 0.832174
v -0.231763 0.000000 0.713292
v -0.347644 -1.732051 1.069939
v 0.000000 0.000000 1.250000
v 0.000000 1.732051 1.125000
v 0.000000 1.732051 0.875000
v 0.000000 0.000000 0.750000
v 0.000000 -1.732051 1.125000
v 0.386271 0.000000 1.188821
v 0.347644 1.732051 1.069939
v 0.270390 1.732051 0.832174
v 0.231763 0.000000 0.713292
v 0.347644 -1.732051 1.069939
v 0.734731 0.000000 1.011272
v 0.661258 1.732051 0.910145
v 0.514312 1.732051 0.707890
v 0.440839 0.000000 0.606763
v 0.661258 -1.732051 0.910145
v 1.011271 0.000000 0.734732
v 0.910144 1.732051 0.661259
v 0.707890 1.732051 0.514312
v 0.606763 0.000000 0.440839
v 0.910144 -1.732051 0.661259
v 1.188820 0.000000 0.386272
v 1.069938 1.732051 0.347645
v 0.832174 1.732051 0.270390
v 0.713292 0.000000 0.231763
v 1.069938 -1.732051 0.347645
vn 0.9852 0.0711 -0.1560
vn 0.0000 1.0000 0.0000
vn -0.9852 0.0711 0.1560
vn -0.9081 0.3932 0.1438
vn -0.0000 -1.0000 0.0000
vn 0.9852 -0.0711 -0.1560
vn 0.8888 0.0711 -0.4528
vn -0.8888 0.0711 0.4528
vn -0.8192 0.3932 0.4174
vn 0.8888 -0.0711 -0.4528
vn 0.7053 0.0711 -0.7053
vn -0.7053 0.0711 0.7053
vn -0.6501 0.3932 0.6501
vn 0.7053 -0.0711 -0.7053
vn 0.4528 0.0711 -0.8888
vn -0.4528 0.0711 0.8888
vn -0.4174 0.3932 0.8192
vn 0.4528 -0.0711 -0.8888
vn 0.1560 0.0711 -0.9852
vn -0.1560 0.0711 0.9852
vn -0.1438 0.3932 0.9081
vn 0.1560 -0.0711 -0.9852
vn -0.1560 0.0711 -0.9852
vn 0.1560 0.0711 0.9852
vn 0.1438 0.3932 0.9081
vn -0.1560 -0.0711 -0.9852
vn -0.4528 0.0711 -0.8888
vn 0.4528 0.0711 0.8888
vn 0.4174 0.3932 0.8192
vn -0.4528 -0.0711 -0.8888
vn -0.7053 0.0711 -0.7053
vn 0.7053 0.0711 0.7053
vn 0.6501 0.3932 0.6501
vn -0.7053 -0.0711 -0.7053
vn -0.8888 0.0711 -0.4528
vn 0.8888 0.0711 0.4528
vn 0.8192 0.3932 0.4174
vn -0.8888 -0.0711 -0.4528
vn -0.9852 0.0711 -0.1560
vn 0.9852 0.0711 0.1560
vn 0.9081 0.3932 0.1438
vn -0.9852 -0.0711 -0.1560
vn 0.9081 0.3932 -0.1438
vn -0.9852 -0.0711 0.1560
vn 0.8192 0.3932 -0.4174
vn -0.8888 -0.0711 0.4528
vn 0.6501 0.3932 -0.6501
vn -0.7053 -0.0711 0.7053
vn 0.4174 0.3932 -0.8192
vn -0.4528 -0.0711 0.8888
vn 0.1438 0.3932 -0.9081
vn -0.1560 -0.0711 0.9852
vn -0.1438 0.3932 -0.9081
vn 0.1560 -0.0711 0.9852
vn -0.4174 0.3932 -0.8192
vn 0.4528 -0.0711 0.8888
vn -0.6501 0.3932 -0.6501
vn 0.7053 -0.0711 0.7053
vn -0.8192 0.3932 -0.4174
vn 0.8888 -0.0711 0.4528
vn -0.9081 0.3932 -0.1438
vn 0.9852 -0.0711 0.1560
usemtl Material.001
s off
f 1//1 7//1 8//1 2//1
f 2//2 8//2 9//2 3//2
f 3//3 9//3 10//3 4//3
f 4//4 10//4 5//4
f 5//5 11//5 6//5
f 6//6 11//6 7//6 1//6
f 7//7 12//7 13//7 8//7
f 8//2 13//2 14//2 9//2
f 9//8 14//8 15//8 10//8
f 10//9 15//9 5//9
f 5//5 16//5 11//5
f 11//10 16//10 12//10 7//10
f 12//11 17//11 18//11 13//11
f 13//2 18//2 19//2 14//2
f 14//12 19//12 20//12 15//12
f 15//13 20//13 5//13
f 5//5 21//5 16//5
f 16//14 21//14 17//14 12//14
f 17//15 22//15 23//15 18//15
f 18//2 23//2 24//2 19//2
f 19//16 24//16 25//16 20//16
f 20//17 25//17 5//17
f 5//5 26//5 21//5
f 21//18 26//18 22//18 17//18
f 22//19 27//19 28//19 23//19
f 23//2 28//2 29//2 24//2
f 24//20 29//20 30//20 25//20
f 25//21 30//21 5//21
f 5//5 31//5 26//5
f 26//22 31//22 27//22 22//22
f 27//23 32//23 33//23 28//23
f 28//2 33//2 34//2 29//2
f 29//24 34//24 35//24 30//24
f 30//25 35//25 5//25
f 5//5 36//5 31//5
f 31//26 36//26 32//26 27//26
f 32//27 37//27 38//27 33//27
f 33//2 38//2 39//2 34//2
f 34//28 39//28 40//28 35//28
f 35//29 40//29 5//29
f 5//5 41//5 36//5
f 36//30 41//30 37//30 32//30
f 37//31 42//31 43//31 38//31
f 38//2 43//2 44//2 39//2
f 39//32 44//32 45//32 40//32
f 40//33 45//33 5//33
f 5//5 46//5 41//5
f 41//34 46//34 42//34 37//34
f 42//35 47//35 48//35 43//35
f 43//2 48//2 49//2 44//2
f 44//36 49//36 50//36 45//36
f 45//37 50//37 5//37
f 5//5 51//5 46//5
f 46//38 51//38 47//38 42//38
f 47//39 52//39 53//39 48//39
f 48//2 53//2 54//2 49//2
f 49//40 54//40 55//40 50//40
f 50//41 55//41 5//41
f 5//5 56//5 51//5
f 51//42 56//42 52//42 47//42
f 52//3 57//3 58//3 53//3
f 53//2 58//2 59//2 54//2
f 54//1 59//1 60//1 55//1
f 55//43 60//43 5//43
f 5//5 61//5 56//5
f 56//44 61//44 57//44 52//44
f 57//8 62//8 63//8 58//8
f 58//2 63//2 64//2 59//2
f 59//7 64//7 65//7 60//7
f 60//45 65//45 5//45
f 5//5 66//5 61//5
f 61//46 66//46 62//46 57//46
f 62//12 67//12 68//12 63//12
f 63//2 68//2 69//2 64//2
f 64//11 69//11 70//11 65//11
f 65//47 70//47 5//47
f 5//5 71//5 66//5
f 66//48 71//48 67//48 62//48
f 67//16 72//16 73//16 68//16
f 68//2 73//2 74//2 69//2
f 69//15 74//15 75//15 70//15
f 70//49 75//49 5//49
f 5//5 76//5 71//5
f 71//50 76//50 72//50 67//50
f 72//20 77//20 78//20 73//20
f 73//2 78//2 79//2 74//2
f 74//19 79//19 80//19 75//19
f 75//51 80//51 5//51
f 5//5 81//5 76//5
f 76//52 81//52 77//52 72//52
f 77//24 82//24 83//24 78//24
f 78//2 83//2 84//2 79//2
f 79//23 84//23 85//23 80//23
f 80//53 85//53 5//53
f 5//5 86//5 81//5
f 81//54 86//54 82//54 77//54
f 82//28 87//28 88//28 83//28
f 83//2 88//2 89//2 84//2
f 84//27 89//27 90//27 85//27
f 85//55 90//55 5//55
f 5//5 91//5 86//5
f 86//56 91//56 87//56 82//56
f 87//32 92//32 93//32 88//32
f 88//2 93//2 94//2 89//2
f 89//31 94//31 95//31 90//31
f 90//57 95//57 5//57
f 5//5 96//5 91//5
f 91//58 96//58 92//58 87//58
f 92//36 97//36 98//36 93//36
f 93//2 98//2 99//2 94//2
f 94//35 99//35 100//35 95//35
f 95//59 100//59 5//59
f 5//5 101//5 96//5
f 96//60 101//60 97//60 92//60
f 97//40 1//40 2//40 98//40
f 98//2 2//2 3//2 99//2
f 99//39 3//39 4//39 100//39
f 100//61 4//61 5//61
f 5//5 6//5 101//5
f 101//62 6//62 1//62 97//62
