# Blender v2.81 (sub 16) OBJ File: 'casa.blend'
# www.blender.org
mtllib casa.mtl
o Cube
v 1.000000 -1.000000 -1.000000
v 1.000000 -1.000000 1.000000
v -1.000000 -1.000000 1.000000
v -1.000000 -1.000000 -1.000000
v 1.000000 1.000000 -0.999999
v 0.999999 1.000000 1.000001
v -1.000000 1.000000 1.000000
v -1.000000 1.000000 -1.000000
v 0.383975 1.753059 -0.383975
v 0.383975 1.753059 0.383975
v -0.383975 1.753059 0.383975
v -0.383975 1.753059 -0.383975
v 0.845994 1.188265 -0.845993
v 0.691988 1.376530 -0.691987
v 0.537981 1.564794 -0.537981
v 0.449455 1.000000 -1.000000
v 0.400351 1.564733 -0.538031
v 0.416584 1.378039 -0.690753
v 0.574172 1.377175 -0.691459
v 0.537981 2.136668 -0.537981
v 0.400351 2.136606 -0.538031
v 0.416584 1.949912 -0.690753
v 0.574172 1.949049 -0.691459
v -1.000000 -1.000000 -0.500000
v -1.000000 -1.000000 0.500000
v -1.000000 1.000000 -0.000000
v -1.000000 1.000000 -0.500000
v -1.000000 1.000000 0.500000
v -1.000000 0.000000 -1.000000
v -1.000000 0.000000 1.000000
v -1.000000 0.000000 -0.000000
v -1.000000 0.000000 0.500000
v -1.000000 0.000000 -0.500000
v -1.000000 1.000000 -0.250000
v -1.000000 1.000000 0.250000
v -1.000000 0.000000 0.250000
v -1.000000 0.000000 -0.250000
v -1.000000 0.500000 -0.500000
v -1.000000 0.500000 0.500000
v -1.000000 0.500000 -0.250000
v -1.000000 0.500000 0.250000
v -1.020000 1.000000 -0.500000
v -1.020000 1.000000 -0.250000
v -1.020000 0.500000 -0.500000
v -1.020000 0.500000 -0.250000
v -1.020000 1.000000 0.500000
v -1.020000 1.000000 0.250000
v -1.020000 0.500000 0.500000
v -1.020000 0.500000 0.250000
v -1.000000 -0.500000 -0.500000
v -1.000000 -0.500000 0.500000
v -1.000000 -0.500000 -0.000000
v -1.000000 -0.500000 0.250000
v -1.000000 -0.500000 -0.250000
v -1.000000 -1.000000 -0.000000
v -1.000000 -1.000000 0.250000
v -1.000000 -1.000000 -0.250000
vn -0.0000 0.6332 0.7740
vn 1.0000 0.0000 0.0000
vn -0.0000 -0.0000 1.0000
vn -1.0000 -0.0000 -0.0000
vn 0.0000 0.0000 -1.0000
vn 0.0000 1.0000 0.0000
vn 0.7740 0.6332 0.0000
vn -0.7740 0.6332 -0.0000
vn 0.0000 0.6332 -0.7740
vn -0.9944 0.0000 -0.1057
vn 0.9733 0.0000 0.2295
vn -0.0045 0.0000 -1.0000
vn -0.0004 0.0000 1.0000
vn 0.0000 -1.0000 0.0000
usemtl Material
s off
f 7//1 6//1 10//1 11//1
f 1//2 5//2 6//2 2//2
f 2//3 6//3 7//3 30//3 3//3
f 29//4 33//4 38//4 27//4 8//4
f 5//5 1//5 4//5 29//5 8//5 16//5
f 9//6 12//6 11//6 10//6
f 6//7 5//7 13//7 14//7 15//7 9//7 10//7
f 8//8 27//8 34//8 26//8 35//8 28//8 7//8 11//8 12//8
f 5//9 16//9 18//9 19//9 14//9 13//9
f 20//9 23//9 22//9 21//9
f 9//9 17//9 18//9 16//9 8//9 12//9
f 15//9 17//9 9//9
f 14//9 19//9 15//9
f 18//10 17//10 21//10 22//10
f 15//11 19//11 23//11 20//11
f 19//12 18//12 22//12 23//12
f 17//13 15//13 20//13 21//13
f 37//4 31//4 26//4 34//4 40//4
f 33//4 37//4 40//4 38//4
f 30//4 7//4 28//4 39//4 32//4
f 24//4 50//4 33//4 29//4 4//4
f 3//4 30//4 32//4 51//4 25//4
f 35//4 26//4 31//4 36//4 41//4
f 36//4 32//4 39//4 41//4
f 38//14 40//14 45//14 44//14
f 28//6 35//6 47//6 46//6
f 43//4 42//4 44//4 45//4
f 34//6 27//6 42//6 43//6
f 40//3 34//3 43//3 45//3
f 27//5 38//5 44//5 42//5
f 47//4 49//4 48//4 46//4
f 41//14 39//14 48//14 49//14
f 35//5 41//5 49//5 47//5
f 39//3 28//3 46//3 48//3
f 24//4 57//4 54//4 50//4
f 25//4 51//4 53//4 56//4
f 32//4 36//4 31//4 37//4 33//4 50//4 54//4 52//4 53//4 51//4
f 52//4 54//4 57//4 55//4
f 53//4 52//4 55//4 56//4
