# Blender v2.79 (sub 0) OBJ File: 'NegocioQueSeguraHelice.blend'
# www.blender.org
mtllib NegocioQueSeguraHelice.mtl
o Cylinder
v 0.000000 -2.000000 -0.500000
v 0.000000 2.000000 -0.500000
v 0.475528 -2.000000 -0.154508
v 0.475528 2.000000 -0.154508
v 0.293893 -2.000000 0.404509
v 0.293893 2.000000 0.404509
v -0.293893 -2.000000 0.404508
v -0.293893 2.000000 0.404508
v -0.475528 -2.000000 -0.154509
v -0.475528 2.000000 -0.154509
vn 0.5878 0.0000 -0.8090
vn 0.9511 0.0000 0.3090
vn -0.0000 0.0000 1.0000
vn 0.0000 1.0000 0.0000
vn -0.9511 0.0000 0.3090
vn -0.5878 0.0000 -0.8090
vn 0.0000 -1.0000 0.0000
usemtl Material.001
s off
f 1//1 2//1 4//1 3//1
f 3//2 4//2 6//2 5//2
f 5//3 6//3 8//3 7//3
f 4//4 2//4 10//4 8//4 6//4
f 7//5 8//5 10//5 9//5
f 9//6 10//6 2//6 1//6
f 1//7 3//7 5//7 7//7 9//7
